<?xml version="1.0" standalone="no"?>
<!DOCTYPE svg PUBLIC "-//W3C//DTD SVG 20010904//EN"
 "http://www.w3.org/TR/2001/REC-SVG-20010904/DTD/svg10.dtd">
<svg version="1.0" xmlns="http://www.w3.org/2000/svg"
 width="1684.000000pt" height="1430.000000pt" viewBox="0 0 1684.000000 1430.000000"
 preserveAspectRatio="xMidYMid meet">

<g transform="translate(0.000000,1430.000000) scale(0.100000,-0.100000)"
fill="#000000" stroke="none">
<path d="M2708 11308 c-1 -1443 -1 -2666 1 -2718 6 -212 50 -322 176 -445 45
-44 108 -111 140 -150 152 -183 230 -268 263 -290 54 -35 118 -48 172 -36 24
5 46 8 48 6 2 -2 -1 -20 -7 -42 -23 -83 -5 -166 52 -239 55 -72 316 -365 406
-457 47 -49 109 -101 136 -115 l50 -27 1585 -3 c872 -1 1599 0 1617 3 67 12
57 32 -125 227 -92 101 -211 230 -263 288 -53 58 -114 116 -138 128 l-42 24
-1339 -1 -1340 -2 0 106 0 105 1243 0 1244 0 959 935 c527 514 963 940 967
947 6 9 -224 430 -677 1242 -377 676 -689 1233 -694 1238 -4 4 -213 7 -463 6
l-456 -3 669 -1140 c368 -627 676 -1152 684 -1167 l14 -27 -707 -637 c-389
-349 -725 -646 -748 -659 -94 -56 -79 -55 -1102 -55 l-943 0 -2 2008 -3 2009
-60 73 c-152 187 -500 575 -514 575 -15 0 -16 -202 -19 -2327 l-2 -2328 -90 0
-90 0 -2 2444 -3 2443 -25 36 c-30 41 -546 634 -561 642 -5 4 -10 -974 -11
-2617z"/>
<path d="M14046 13144 c-149 -36 -236 -102 -473 -359 -252 -274 -949 -998
-1953 -2030 -662 -680 -1211 -1258 -1206 -1271 3 -8 272 -434 597 -945 325
-512 593 -938 596 -946 5 -13 0 -14 -28 -8 -19 5 -167 9 -329 10 -323 2 -337
4 -424 64 -70 48 -108 101 -237 325 -67 116 -237 395 -377 619 l-255 408 -22
-23 c-12 -13 -375 -387 -806 -833 l-784 -809 75 -14 c104 -18 302 -20 370 -3
140 35 242 105 352 244 122 153 219 260 485 535 l256 263 115 -173 c180 -269
225 -344 314 -519 76 -152 89 -170 168 -250 91 -93 156 -131 280 -166 58 -16
99 -18 365 -15 165 2 424 -2 575 -9 614 -25 611 -25 607 -9 -4 13 -1375 2177
-1399 2207 -7 8 514 556 1754 1844 970 1007 1764 1835 1766 1839 5 13 -168 40
-248 39 -41 0 -102 -7 -134 -15z"/>
<path d="M8293 12033 c2 -5 54 -96 116 -204 l113 -196 82 -7 c44 -4 178 -11
297 -15 247 -9 286 -20 340 -93 15 -22 180 -340 365 -707 387 -767 424 -835
435 -824 4 4 368 402 808 883 l800 875 -72 18 c-93 23 -258 33 -323 19 -159
-34 -248 -96 -382 -266 -146 -184 -408 -475 -712 -789 l-27 -29 -52 89 c-28
48 -113 210 -188 358 -370 734 -411 803 -493 825 -35 9 -104 14 -705 50 -368
22 -408 23 -402 13z"/>
<path d="M12885 8545 c-274 -63 -482 -266 -549 -536 -21 -85 -21 -243 0 -328
47 -187 167 -352 328 -450 31 -18 95 -47 143 -64 81 -29 99 -31 218 -32 148 0
225 18 350 83 84 44 223 178 273 264 77 131 113 303 93 447 -23 174 -83 293
-211 421 -93 93 -172 141 -295 180 -89 28 -263 36 -350 15z m268 -140 c99 -21
191 -70 271 -145 l69 -65 -68 -5 -69 -5 -57 -93 c-31 -51 -60 -94 -64 -95 -3
-1 -32 41 -64 93 l-57 95 -267 3 c-147 1 -267 6 -267 11 0 20 121 119 188 155
120 63 250 80 385 51z m-518 -355 l65 0 2 -272 3 -273 68 -3 67 -3 0 276 0
275 65 0 65 0 2 -272 3 -273 67 -3 68 -3 2 208 3 208 58 -97 c32 -54 59 -98
61 -98 2 0 30 44 62 98 l59 97 3 -207 2 -208 68 0 67 -1 -70 -67 c-230 -220
-574 -215 -800 12 -121 122 -171 255 -163 431 6 106 27 178 77 265 l26 45 3
-67 3 -68 64 0z m904 62 c46 -92 64 -167 64 -267 0 -56 -6 -112 -17 -149 -17
-59 -71 -176 -81 -176 -3 0 -5 146 -5 325 0 179 2 325 5 325 3 0 18 -26 34
-58z"/>
<path d="M1147 5853 c-4 -3 -7 -620 -7 -1370 l0 -1363 808 2 807 3 3 262 2
263 -537 2 -538 3 -5 1100 -5 1100 -261 3 c-143 1 -263 -1 -267 -5z"/>
<path d="M3087 5853 c-4 -3 -7 -547 -7 -1207 l0 -1201 162 -162 163 -163 485
0 485 0 163 163 162 162 -2 1205 -3 1205 -265 0 -265 0 -5 -1100 -5 -1100
-262 -3 -263 -2 0 1099 c0 993 -2 1099 -16 1105 -21 8 -519 8 -527 -1z"/>
<path d="M5054 5768 c65 -178 255 -695 365 -990 l110 -297 -253 -675 c-139
-372 -251 -678 -248 -681 3 -3 135 -5 292 -5 l288 0 21 58 c136 375 177 478
190 486 8 5 57 -116 138 -344 18 -52 43 -119 54 -147 l21 -53 289 0 c159 0
289 2 289 5 0 8 -226 628 -373 1025 l-125 334 19 51 c127 342 479 1310 479
1316 0 5 -127 9 -283 9 l-283 0 -47 -117 c-25 -65 -64 -167 -86 -228 -60 -169
-83 -225 -91 -225 -4 0 -19 30 -33 68 -14 37 -48 128 -76 202 -28 74 -65 172
-83 218 l-31 82 -288 0 -288 0 33 -92z"/>
<path d="M7108 5699 l-168 -161 0 -1046 0 -1047 162 -162 163 -163 482 0 482
0 165 161 166 161 0 1047 0 1048 -169 161 -169 162 -474 0 -473 0 -167 -161z
m902 -1214 l0 -835 -262 2 -263 3 -3 833 -2 832 265 0 265 0 0 -835z"/>
<path d="M8887 5853 c-4 -3 -7 -620 -7 -1370 l0 -1363 273 2 272 3 3 547 2
548 253 2 252 3 0 260 0 260 -252 3 -253 2 0 285 0 285 460 0 460 0 -2 268 -3
267 -726 3 c-399 1 -729 -1 -732 -5z"/>
<path d="M10675 5838 c-3 -13 -4 -628 -3 -1368 l3 -1345 808 -3 807 -2 0 265
0 265 -535 0 c-294 0 -536 1 -537 3 -2 1 -5 497 -8 1102 l-5 1100 -262 3 -263
2 -5 -22z"/>
<path d="M12617 5853 c-4 -3 -7 -620 -7 -1370 l0 -1363 1087 2 1087 3 86 195
c114 260 157 350 168 350 9 0 85 -162 172 -367 26 -62 56 -127 67 -145 l19
-33 347 -3 c191 -1 347 0 347 3 0 8 -216 500 -419 954 l-181 405 135 305 c73
169 210 478 303 689 l170 382 -344 0 -345 0 -64 -132 c-35 -73 -91 -197 -125
-275 -34 -78 -68 -147 -75 -153 -15 -13 -28 10 -165 315 -37 83 -77 171 -90
197 l-22 48 -1072 0 c-590 0 -1076 -3 -1079 -7z m1888 -963 c97 -217 177 -400
178 -407 0 -6 -134 -308 -299 -672 l-299 -661 -3 250 -2 250 -463 2 -462 3 0
280 0 280 252 3 c252 2 253 2 258 25 3 12 4 130 3 262 l-3 240 -255 5 -255 5
-3 283 -2 282 465 0 465 0 0 263 0 262 124 -280 c68 -154 203 -458 301 -675z"/>
<path d="M8613 1909 c-127 -21 -231 -87 -272 -172 -29 -59 -29 -155 0 -215 42
-85 132 -131 402 -202 242 -64 327 -116 327 -201 0 -80 -56 -149 -160 -198
-49 -23 -67 -26 -170 -26 -108 0 -119 2 -181 31 -81 39 -134 85 -174 153 -22
37 -36 51 -52 51 -23 0 -23 -2 -23 -135 0 -133 0 -135 23 -135 12 1 37 14 56
30 31 27 36 28 60 16 148 -77 391 -77 539 -2 168 86 233 305 131 445 -53 74
-134 108 -391 166 -254 57 -308 89 -308 182 0 59 33 103 103 141 48 25 61 27
167 27 96 0 122 -3 161 -21 59 -28 123 -85 156 -141 15 -27 32 -43 44 -43 18
0 19 9 19 120 0 135 -5 142 -65 96 l-32 -25 -60 24 c-58 24 -171 46 -223 44
-14 -1 -48 -5 -77 -10z"/>
<path d="M14153 1909 c-130 -22 -244 -96 -278 -181 -22 -55 -22 -141 0 -196
36 -90 134 -141 407 -213 298 -78 371 -144 307 -276 -47 -98 -183 -159 -339
-151 -77 4 -98 9 -163 41 -78 39 -144 101 -175 165 -11 22 -23 32 -39 32 -23
0 -23 -1 -23 -135 0 -133 0 -135 23 -135 12 1 37 14 56 30 31 27 36 28 60 16
145 -75 391 -77 533 -5 174 89 238 298 137 446 -53 76 -130 110 -391 168 -225
51 -276 75 -305 143 -28 66 11 133 107 183 40 21 59 24 160 24 96 0 122 -3
161 -21 59 -28 123 -85 156 -141 15 -27 32 -43 44 -43 18 0 19 9 19 120 0 112
-1 120 -19 120 -11 0 -33 -11 -49 -25 l-29 -24 -60 24 c-58 24 -171 46 -223
44 -14 -1 -48 -5 -77 -10z"/>
<path d="M10402 1890 c-343 -90 -507 -433 -359 -750 41 -88 151 -198 238 -240
189 -89 448 -78 607 26 236 155 316 446 190 688 -44 84 -155 192 -239 233
-130 64 -294 80 -437 43z m317 -51 c133 -57 183 -197 183 -508 -1 -215 -34
-315 -130 -388 -58 -44 -110 -58 -217 -57 -234 1 -334 135 -335 449 0 264 45
414 145 482 83 56 251 67 354 22z"/>
<path d="M2430 1870 c0 -18 7 -20 85 -20 l85 0 0 -470 0 -470 -85 0 c-84 0
-85 0 -85 -25 l0 -25 273 2 c264 3 272 4 272 23 0 18 -8 20 -87 23 l-88 3 0
469 0 470 90 0 c83 0 90 1 90 20 0 20 -7 20 -275 20 -268 0 -275 0 -275 -20z"/>
<path d="M3120 1870 c0 -18 7 -20 75 -20 l75 0 0 -470 0 -469 -72 -3 c-65 -3
-73 -5 -73 -23 0 -19 7 -20 180 -20 173 0 180 1 180 20 0 18 -8 20 -72 23
l-73 3 1 467 c0 257 3 463 5 457 3 -5 85 -226 182 -490 167 -452 179 -480 203
-483 25 -3 31 10 214 475 103 263 192 482 196 487 5 6 9 -197 9 -452 l0 -462
-75 0 c-73 0 -75 -1 -75 -25 l0 -25 248 2 247 3 3 23 c3 21 1 22 -77 22 l-81
0 0 470 0 470 80 0 c73 0 80 2 80 20 0 19 -7 20 -199 20 l-199 0 -70 -177
c-237 -604 -225 -576 -235 -552 -21 58 -250 677 -259 702 l-10 27 -204 0
c-197 0 -204 -1 -204 -20z"/>
<path d="M4660 1871 c0 -19 6 -21 75 -21 l75 0 0 -470 0 -469 -72 -3 c-65 -3
-73 -5 -73 -23 0 -19 7 -20 250 -20 l250 0 3 23 c3 21 1 22 -77 22 l-81 0 0
210 0 210 118 0 c261 1 457 71 515 184 26 49 33 132 17 181 -17 53 -72 109
-129 134 -120 51 -145 54 -518 59 -353 4 -353 4 -353 -17z m677 -45 c69 -22
101 -63 115 -148 13 -75 -1 -159 -35 -209 -44 -65 -155 -99 -324 -99 l-83 0 0
241 0 242 138 -6 c83 -3 158 -12 189 -21z"/>
<path d="M5770 1870 c0 -18 7 -20 75 -20 l75 0 0 -470 0 -470 -75 0 c-73 0
-75 -1 -75 -25 l0 -25 253 2 252 3 3 23 c3 21 1 22 -77 22 l-81 0 0 245 0 245
85 0 c108 0 172 -14 230 -51 56 -36 80 -85 89 -184 18 -193 71 -287 178 -316
49 -13 186 -7 236 11 41 15 47 53 7 45 -14 -3 -36 -7 -50 -10 -14 -3 -44 -1
-65 5 -55 15 -69 46 -79 183 -5 71 -15 127 -26 150 -34 73 -143 141 -267 167
l-63 14 85 12 c203 30 320 115 320 234 0 111 -80 179 -254 215 -60 12 -148 15
-426 15 -343 0 -350 0 -350 -20z m722 -47 c65 -29 83 -66 83 -168 0 -102 -19
-140 -90 -175 -46 -23 -64 -25 -207 -29 l-158 -3 0 202 0 202 163 -4 c137 -3
169 -7 209 -25z"/>
<path d="M7100 1870 c0 -18 7 -20 75 -20 l75 0 0 -470 0 -470 -76 0 c-72 0
-75 -1 -72 -22 l3 -23 506 -3 507 -2 6 62 c3 35 8 102 12 151 6 87 6 87 -17
87 -20 0 -27 -9 -41 -47 -24 -67 -64 -125 -104 -152 -60 -41 -123 -51 -326
-51 l-188 0 0 235 0 235 23 0 c45 0 151 -21 179 -36 35 -18 65 -64 73 -116 6
-33 10 -39 28 -36 22 3 22 7 25 196 l2 192 -24 0 c-18 0 -25 -7 -29 -27 -10
-48 -46 -94 -85 -110 -20 -8 -72 -18 -114 -21 l-78 -5 0 217 0 216 162 0 c295
0 366 -29 414 -169 8 -24 19 -37 33 -39 20 -3 21 0 21 122 l0 126 -495 0
c-488 0 -495 0 -495 -20z"/>
<path d="M9290 1870 c0 -18 7 -20 85 -20 l85 0 0 -470 0 -470 -85 0 c-84 0
-85 0 -85 -25 l0 -25 270 0 270 0 0 25 c0 25 -1 25 -85 25 l-85 0 0 470 0 470
85 0 c78 0 85 2 85 20 0 20 -7 20 -270 20 -263 0 -270 0 -270 -20z"/>
<path d="M11310 1870 c0 -18 7 -20 70 -20 l70 0 0 -470 0 -469 -72 -3 c-65 -3
-73 -5 -73 -23 0 -19 8 -20 183 -23 l182 -2 0 25 c0 24 -1 25 -75 25 l-75 0 0
457 c0 389 2 455 14 443 7 -8 176 -230 375 -492 333 -440 365 -478 392 -478
l29 0 0 505 0 505 75 0 c68 0 75 2 75 20 0 19 -7 20 -185 20 -178 0 -185 -1
-185 -20 0 -18 7 -20 75 -20 l75 0 0 -342 c-1 -272 -3 -340 -13 -328 -7 9
-133 172 -280 363 l-269 347 -194 0 c-187 0 -194 -1 -194 -20z"/>
<path d="M12640 1870 c0 -18 7 -20 75 -20 l75 0 0 -470 0 -470 -76 0 c-72 0
-75 -1 -72 -22 l3 -23 505 0 505 0 6 55 c4 30 10 97 13 148 7 91 7 92 -16 92
-19 0 -27 -11 -47 -62 -29 -74 -81 -134 -141 -162 -40 -19 -68 -21 -257 -24
l-213 -4 0 236 0 236 23 0 c45 0 151 -21 179 -36 35 -18 65 -64 73 -116 6 -33
10 -39 28 -36 22 3 22 7 25 196 l2 192 -22 0 c-19 0 -27 -10 -41 -49 -27 -77
-91 -110 -214 -111 l-53 0 0 215 0 215 163 0 c293 0 363 -29 411 -166 9 -27
20 -40 34 -42 22 -3 22 -1 22 122 l0 126 -495 0 c-488 0 -495 0 -495 -20z"/>
</g>
</svg>
