<svg id="visual" viewBox="0 0 960 540" width="960" height="540" xmlns="http://www.w3.org/2000/svg" xmlns:xlink="http://www.w3.org/1999/xlink" version="1.1"><g stroke-width="1" stroke-linejoin="bevel"><path d="M459.4 301.5L418.4 328L451.6 344.5Z" fill="#000205" stroke="#000205"></path><path d="M418.4 328L441.9 351.5L451.6 344.5Z" fill="#0b0e0f" stroke="#0b0e0f"></path><path d="M352.9 358L383.4 346.5L286.7 309Z" fill="#0e1112" stroke="#0e1112"></path><path d="M418.4 328L383.4 346.5L441.9 351.5Z" fill="#0e1112" stroke="#0e1112"></path><path d="M441.9 351.5L448 392.5L451.6 344.5Z" fill="#101213" stroke="#101213"></path><path d="M451.6 344.5L526.6 351L459.4 301.5Z" fill="#000205" stroke="#000205"></path><path d="M383.4 346.5L448 392.5L441.9 351.5Z" fill="#010406" stroke="#010406"></path><path d="M448 392.5L526.6 351L451.6 344.5Z" fill="#05080a" stroke="#05080a"></path><path d="M286.7 309L383.4 346.5L300.9 233Z" fill="#0d0f10" stroke="#0d0f10"></path><path d="M383.4 346.5L329.4 397.5L448 392.5Z" fill="#05080a" stroke="#05080a"></path><path d="M529 216L461 222.5L459.4 301.5Z" fill="#101213" stroke="#101213"></path><path d="M459.4 301.5L461 222.5L418.4 328Z" fill="#030608" stroke="#030608"></path><path d="M558 368L553 349.5L526.6 351Z" fill="#0e1112" stroke="#0e1112"></path><path d="M526.6 351L529 216L459.4 301.5Z" fill="#0e1112" stroke="#0e1112"></path><path d="M286.7 309L333.4 366L352.9 358Z" fill="#0e1112" stroke="#0e1112"></path><path d="M352.9 358L329.4 397.5L383.4 346.5Z" fill="#090c0e" stroke="#090c0e"></path><path d="M555.6 382L558 368L526.6 351Z" fill="#070a0c" stroke="#070a0c"></path><path d="M448 392.5L555.6 382L526.6 351Z" fill="#090c0e" stroke="#090c0e"></path><path d="M602.1 314.5L529 216L553 349.5Z" fill="#101213" stroke="#101213"></path><path d="M553 349.5L529 216L526.6 351Z" fill="#0d0f10" stroke="#0d0f10"></path><path d="M333.4 366L329.4 397.5L352.9 358Z" fill="#0d0f10" stroke="#0d0f10"></path><path d="M333.4 366L314.3 385L329.4 397.5Z" fill="#0b0e0f" stroke="#0b0e0f"></path><path d="M286.7 309L314.3 385L333.4 366Z" fill="#070a0c" stroke="#070a0c"></path><path d="M448 392.5L517.6 457.5L555.6 382Z" fill="#000000" stroke="#000000"></path><path d="M451.4 540L517.6 457.5L448 392.5Z" fill="#090c0e" stroke="#090c0e"></path><path d="M300.9 233L383.4 346.5L418.4 328Z" fill="#000000" stroke="#000000"></path><path d="M611.7 336.5L553 349.5L558 368Z" fill="#070a0c" stroke="#070a0c"></path><path d="M611.7 336.5L602.1 314.5L553 349.5Z" fill="#010406" stroke="#010406"></path><path d="M611.7 336.5L558 368L636.7 384Z" fill="#070a0c" stroke="#070a0c"></path><path d="M416.9 149.5L300.9 233L461 222.5Z" fill="#000205" stroke="#000205"></path><path d="M461 222.5L300.9 233L418.4 328Z" fill="#070a0c" stroke="#070a0c"></path><path d="M636.7 384L558 368L555.6 382Z" fill="#010406" stroke="#010406"></path><path d="M450.4 137.5L416.9 149.5L461 222.5Z" fill="#000205" stroke="#000205"></path><path d="M529 216L450.4 137.5L461 222.5Z" fill="#000205" stroke="#000205"></path><path d="M639.6 222L560.1 172L529 216Z" fill="#010406" stroke="#010406"></path><path d="M529 216L560.1 172L450.4 137.5Z" fill="#030608" stroke="#030608"></path><path d="M561.6 136.5L560.1 172L609.1 140.5Z" fill="#090c0e" stroke="#090c0e"></path><path d="M238.7 331.5L269.9 400.5L314.3 385Z" fill="#101213" stroke="#101213"></path><path d="M314.3 385L269.9 400.5L329.4 397.5Z" fill="#0e1112" stroke="#0e1112"></path><path d="M329.4 397.5L451.4 540L448 392.5Z" fill="#0e1112" stroke="#0e1112"></path><path d="M286.7 309L238.7 331.5L314.3 385Z" fill="#010406" stroke="#010406"></path><path d="M234.7 322L243.3 324L228.3 275.5Z" fill="#101213" stroke="#101213"></path><path d="M310.3 161L275.9 207L300.9 233Z" fill="#0b0e0f" stroke="#0b0e0f"></path><path d="M228.3 275.5L243.3 324L286.7 309Z" fill="#101213" stroke="#101213"></path><path d="M517.6 457.5L636.7 384L555.6 382Z" fill="#090c0e" stroke="#090c0e"></path><path d="M673.7 265.5L639.6 222L602.1 314.5Z" fill="#0b0e0f" stroke="#0b0e0f"></path><path d="M234.7 322L238.7 331.5L243.3 324Z" fill="#0e1112" stroke="#0e1112"></path><path d="M243.3 324L238.7 331.5L286.7 309Z" fill="#010406" stroke="#010406"></path><path d="M416.9 149.5L310.3 161L300.9 233Z" fill="#0d0f10" stroke="#0d0f10"></path><path d="M304.9 136.5L310.3 161L416.9 149.5Z" fill="#010406" stroke="#010406"></path><path d="M228.3 275.5L286.7 309L300.9 233Z" fill="#030608" stroke="#030608"></path><path d="M310.3 161L289.7 164.5L275.9 207Z" fill="#000205" stroke="#000205"></path><path d="M227.3 227.5L228.3 275.5L300.9 233Z" fill="#000205" stroke="#000205"></path><path d="M639.6 222L529 216L602.1 314.5Z" fill="#070a0c" stroke="#070a0c"></path><path d="M560.1 172L542.6 112.5L450.4 137.5Z" fill="#090c0e" stroke="#090c0e"></path><path d="M227.3 227.5L300.9 233L275.9 207Z" fill="#090c0e" stroke="#090c0e"></path><path d="M282.3 470.5L451.4 540L329.4 397.5Z" fill="#0e1112" stroke="#0e1112"></path><path d="M517.6 457.5L589.1 540L636.7 384Z" fill="#05080a" stroke="#05080a"></path><path d="M199.1 431L282.3 470.5L269.9 400.5Z" fill="#010406" stroke="#010406"></path><path d="M269.9 400.5L282.3 470.5L329.4 397.5Z" fill="#0b0e0f" stroke="#0b0e0f"></path><path d="M291.9 540L282.3 470.5L260.3 540Z" fill="#090c0e" stroke="#090c0e"></path><path d="M673.7 265.5L602.1 314.5L611.7 336.5Z" fill="#000000" stroke="#000000"></path><path d="M451.4 540L474.6 540L517.6 457.5Z" fill="#090c0e" stroke="#090c0e"></path><path d="M474.6 540L500 540L517.6 457.5Z" fill="#090c0e" stroke="#090c0e"></path><path d="M310.3 161L304.9 136.5L289.7 164.5Z" fill="#010406" stroke="#010406"></path><path d="M289.7 164.5L227.3 227.5L275.9 207Z" fill="#090c0e" stroke="#090c0e"></path><path d="M339.4 40L304.9 136.5L416.9 149.5Z" fill="#0b0e0f" stroke="#0b0e0f"></path><path d="M339.4 40L416.9 149.5L422 15.5Z" fill="#070a0c" stroke="#070a0c"></path><path d="M575.1 60L542.6 112.5L561.6 136.5Z" fill="#000205" stroke="#000205"></path><path d="M561.6 136.5L542.6 112.5L560.1 172Z" fill="#070a0c" stroke="#070a0c"></path><path d="M192.1 220L227.3 227.5L179.7 130.5Z" fill="#0b0e0f" stroke="#0b0e0f"></path><path d="M698.7 344L673.7 265.5L611.7 336.5Z" fill="#0d0f10" stroke="#0d0f10"></path><path d="M683.3 157.5L609.1 140.5L639.6 222Z" fill="#0b0e0f" stroke="#0b0e0f"></path><path d="M639.6 222L609.1 140.5L560.1 172Z" fill="#000000" stroke="#000000"></path><path d="M575.1 60L506 78L542.6 112.5Z" fill="#0d0f10" stroke="#0d0f10"></path><path d="M542.6 112.5L506 78L450.4 137.5Z" fill="#0e1112" stroke="#0e1112"></path><path d="M673.7 265.5L673.3 219L639.6 222Z" fill="#010406" stroke="#010406"></path><path d="M756.7 429.5L694.1 372L726.3 500.5Z" fill="#0d0f10" stroke="#0d0f10"></path><path d="M636.7 384L698.7 344L611.7 336.5Z" fill="#101213" stroke="#101213"></path><path d="M673.7 265.5L711.1 265.5L673.3 219Z" fill="#0e1112" stroke="#0e1112"></path><path d="M694.1 372L698.7 344L636.7 384Z" fill="#090c0e" stroke="#090c0e"></path><path d="M500 540L589.1 540L517.6 457.5Z" fill="#0d0f10" stroke="#0d0f10"></path><path d="M199.1 431L269.9 400.5L238.7 331.5Z" fill="#101213" stroke="#101213"></path><path d="M282.3 470.5L291.9 540L451.4 540Z" fill="#05080a" stroke="#05080a"></path><path d="M146.7 427.5L238.7 331.5L234.7 322Z" fill="#000205" stroke="#000205"></path><path d="M146.7 427.5L199.1 431L238.7 331.5Z" fill="#090c0e" stroke="#090c0e"></path><path d="M153.1 263.5L234.7 322L228.3 275.5Z" fill="#000000" stroke="#000000"></path><path d="M179.7 130.5L227.3 227.5L289.7 164.5Z" fill="#090c0e" stroke="#090c0e"></path><path d="M227.3 227.5L192.1 220L228.3 275.5Z" fill="#010406" stroke="#010406"></path><path d="M698.7 344L711.1 265.5L673.7 265.5Z" fill="#010406" stroke="#010406"></path><path d="M259.7 540L260.3 540L282.3 470.5Z" fill="#070a0c" stroke="#070a0c"></path><path d="M199.1 431L259.7 540L282.3 470.5Z" fill="#0d0f10" stroke="#0d0f10"></path><path d="M735.9 554.5L631.1 541.5L589.1 540Z" fill="#0d0f10" stroke="#0d0f10"></path><path d="M589.1 540L633.7 540L636.7 384Z" fill="#05080a" stroke="#05080a"></path><path d="M735.9 554.5L589.1 540L500 540Z" fill="#030608" stroke="#030608"></path><path d="M735.9 554.5L500 540L474.6 540Z" fill="#101213" stroke="#101213"></path><path d="M735.9 554.5L474.6 540L451.4 540Z" fill="#070a0c" stroke="#070a0c"></path><path d="M735.9 554.5L451.4 540L291.9 540Z" fill="#070a0c" stroke="#070a0c"></path><path d="M735.9 554.5L291.9 540L260.3 540Z" fill="#000000" stroke="#000000"></path><path d="M673.3 219L683.3 157.5L639.6 222Z" fill="#0e1112" stroke="#0e1112"></path><path d="M609.1 140.5L575.1 60L561.6 136.5Z" fill="#0b0e0f" stroke="#0b0e0f"></path><path d="M725.9 240.5L683.3 157.5L673.3 219Z" fill="#0b0e0f" stroke="#0b0e0f"></path><path d="M631.1 541.5L633.7 540L589.1 540Z" fill="#0b0e0f" stroke="#0b0e0f"></path><path d="M610.7 42L575.1 60L609.1 140.5Z" fill="#101213" stroke="#101213"></path><path d="M773.9 290.5L725.9 240.5L711.1 265.5Z" fill="#090c0e" stroke="#090c0e"></path><path d="M711.1 265.5L725.9 240.5L673.3 219Z" fill="#05080a" stroke="#05080a"></path><path d="M773.9 290.5L711.1 265.5L698.7 344Z" fill="#05080a" stroke="#05080a"></path><path d="M192.1 220L153.1 263.5L228.3 275.5Z" fill="#090c0e" stroke="#090c0e"></path><path d="M422 15.5L450.4 137.5L506 78Z" fill="#030608" stroke="#030608"></path><path d="M422 15.5L416.9 149.5L450.4 137.5Z" fill="#0e1112" stroke="#0e1112"></path><path d="M304.9 136.5L179.7 130.5L289.7 164.5Z" fill="#0b0e0f" stroke="#0b0e0f"></path><path d="M192.1 220L150.7 157L153.1 263.5Z" fill="#030608" stroke="#030608"></path><path d="M425 0L422 15.5L489.6 0Z" fill="#090c0e" stroke="#090c0e"></path><path d="M107.1 287.5L146.7 427.5L234.7 322Z" fill="#0d0f10" stroke="#0d0f10"></path><path d="M199.1 431L119.1 538.5L259.7 540Z" fill="#030608" stroke="#030608"></path><path d="M489.6 0L422 15.5L506 78Z" fill="#000205" stroke="#000205"></path><path d="M422 15.5L403.9 0L339.4 40Z" fill="#0b0e0f" stroke="#0b0e0f"></path><path d="M425 0L403.9 0L422 15.5Z" fill="#070a0c" stroke="#070a0c"></path><path d="M575.1 60L489.6 0L506 78Z" fill="#000205" stroke="#000205"></path><path d="M275.7 0L304.9 136.5L339.4 40Z" fill="#0e1112" stroke="#0e1112"></path><path d="M224.1 0L179.7 130.5L304.9 136.5Z" fill="#101213" stroke="#101213"></path><path d="M683.3 157.5L610.7 42L609.1 140.5Z" fill="#030608" stroke="#030608"></path><path d="M575.1 60L610.7 42L489.6 0Z" fill="#000000" stroke="#000000"></path><path d="M403.9 0L363.3 0L339.4 40Z" fill="#0b0e0f" stroke="#0b0e0f"></path><path d="M726.3 500.5L694.1 372L636.7 384Z" fill="#070a0c" stroke="#070a0c"></path><path d="M694.1 372L811.4 345.5L698.7 344Z" fill="#0e1112" stroke="#0e1112"></path><path d="M811.4 345.5L773.9 290.5L698.7 344Z" fill="#010406" stroke="#010406"></path><path d="M725.9 240.5L795.4 222L683.3 157.5Z" fill="#000205" stroke="#000205"></path><path d="M683.3 157.5L680.3 0L610.7 42Z" fill="#05080a" stroke="#05080a"></path><path d="M179.7 130.5L150.7 157L192.1 220Z" fill="#000000" stroke="#000000"></path><path d="M153.1 263.5L107.1 287.5L234.7 322Z" fill="#000000" stroke="#000000"></path><path d="M735.9 554.5L726.3 500.5L633.7 540Z" fill="#090c0e" stroke="#090c0e"></path><path d="M633.7 540L726.3 500.5L636.7 384Z" fill="#070a0c" stroke="#070a0c"></path><path d="M137.6 151L107.1 287.5L153.1 263.5Z" fill="#090c0e" stroke="#090c0e"></path><path d="M363.3 0L334.4 0L339.4 40Z" fill="#0d0f10" stroke="#0d0f10"></path><path d="M179.7 130.5L137.6 151L150.7 157Z" fill="#0e1112" stroke="#0e1112"></path><path d="M150.7 157L137.6 151L153.1 263.5Z" fill="#101213" stroke="#101213"></path><path d="M41.6 92.5L137.6 151L40.1 49.5Z" fill="#101213" stroke="#101213"></path><path d="M334.4 0L275.7 0L339.4 40Z" fill="#0e1112" stroke="#0e1112"></path><path d="M816.3 296.5L795.4 222L773.9 290.5Z" fill="#0e1112" stroke="#0e1112"></path><path d="M773.9 290.5L795.4 222L725.9 240.5Z" fill="#101213" stroke="#101213"></path><path d="M107.1 287.5L79.1 366L146.7 427.5Z" fill="#0b0e0f" stroke="#0b0e0f"></path><path d="M146.7 427.5L119.1 538.5L199.1 431Z" fill="#0d0f10" stroke="#0d0f10"></path><path d="M76.6 288L79.1 366L107.1 287.5Z" fill="#0b0e0f" stroke="#0b0e0f"></path><path d="M726.3 500.5L776.3 473L756.7 429.5Z" fill="#070a0c" stroke="#070a0c"></path><path d="M756.7 429.5L811.4 345.5L694.1 372Z" fill="#000000" stroke="#000000"></path><path d="M137.6 151L76.6 288L107.1 287.5Z" fill="#101213" stroke="#101213"></path><path d="M831.4 458L811.4 345.5L756.7 429.5Z" fill="#010406" stroke="#010406"></path><path d="M811.4 345.5L816.3 296.5L773.9 290.5Z" fill="#090c0e" stroke="#090c0e"></path><path d="M631.1 541.5L735.9 554.5L633.7 540Z" fill="#010406" stroke="#010406"></path><path d="M726.3 500.5L793.3 540L776.3 473Z" fill="#000000" stroke="#000000"></path><path d="M259.7 540L735.9 554.5L260.3 540Z" fill="#0d0f10" stroke="#0d0f10"></path><path d="M275.7 0L224.1 0L304.9 136.5Z" fill="#000000" stroke="#000000"></path><path d="M334.4 0L256.3 -19.5L275.7 0Z" fill="#0b0e0f" stroke="#0b0e0f"></path><path d="M363.3 0L256.3 -19.5L334.4 0Z" fill="#000205" stroke="#000205"></path><path d="M403.9 0L256.3 -19.5L363.3 0Z" fill="#070a0c" stroke="#070a0c"></path><path d="M425 0L256.3 -19.5L403.9 0Z" fill="#070a0c" stroke="#070a0c"></path><path d="M489.6 0L256.3 -19.5L425 0Z" fill="#090c0e" stroke="#090c0e"></path><path d="M256.3 -19.5L224.1 0L275.7 0Z" fill="#000205" stroke="#000205"></path><path d="M115.1 540L119.1 538.5L146.7 427.5Z" fill="#000205" stroke="#000205"></path><path d="M259.7 540L115.1 540L735.9 554.5Z" fill="#0b0e0f" stroke="#0b0e0f"></path><path d="M6.6 436.5L115.1 540L146.7 427.5Z" fill="#000000" stroke="#000000"></path><path d="M119.1 538.5L115.1 540L259.7 540Z" fill="#090c0e" stroke="#090c0e"></path><path d="M704.7 0L680.3 0L683.3 157.5Z" fill="#010406" stroke="#010406"></path><path d="M610.7 42L680.3 0L489.6 0Z" fill="#030608" stroke="#030608"></path><path d="M489.6 0L766.7 -16.5L256.3 -19.5Z" fill="#000205" stroke="#000205"></path><path d="M795.4 222L799.3 124.5L683.3 157.5Z" fill="#000205" stroke="#000205"></path><path d="M906.9 191L799.3 124.5L795.4 222Z" fill="#000205" stroke="#000205"></path><path d="M776.3 473L831.4 458L756.7 429.5Z" fill="#010406" stroke="#010406"></path><path d="M811.4 345.5L883.4 274L816.3 296.5Z" fill="#0b0e0f" stroke="#0b0e0f"></path><path d="M793.3 540L831.4 458L776.3 473Z" fill="#010406" stroke="#010406"></path><path d="M735.9 554.5L793.3 540L726.3 500.5Z" fill="#030608" stroke="#030608"></path><path d="M706.1 0L704.7 0L773.9 46Z" fill="#000205" stroke="#000205"></path><path d="M680.3 0L766.7 -16.5L489.6 0Z" fill="#090c0e" stroke="#090c0e"></path><path d="M726.9 0L706.1 0L773.9 46Z" fill="#0d0f10" stroke="#0d0f10"></path><path d="M704.7 0L766.7 -16.5L680.3 0Z" fill="#000000" stroke="#000000"></path><path d="M841.9 540L846.9 462L831.4 458Z" fill="#090c0e" stroke="#090c0e"></path><path d="M831.4 458L846.9 462L811.4 345.5Z" fill="#070a0c" stroke="#070a0c"></path><path d="M816.3 296.5L883.4 274L795.4 222Z" fill="#05080a" stroke="#05080a"></path><path d="M773.9 46L704.7 0L683.3 157.5Z" fill="#010406" stroke="#010406"></path><path d="M706.1 0L766.7 -16.5L704.7 0Z" fill="#000205" stroke="#000205"></path><path d="M799.3 124.5L773.9 46L683.3 157.5Z" fill="#0d0f10" stroke="#0d0f10"></path><path d="M922.4 387.5L883.4 274L811.4 345.5Z" fill="#000205" stroke="#000205"></path><path d="M832.3 40L766.7 -16.5L773.9 46Z" fill="#010406" stroke="#010406"></path><path d="M76.6 288L0 360.5L79.1 366Z" fill="#000205" stroke="#000205"></path><path d="M79.1 366L10.6 426.5L146.7 427.5Z" fill="#05080a" stroke="#05080a"></path><path d="M0 246L0 360.5L76.6 288Z" fill="#0b0e0f" stroke="#0b0e0f"></path><path d="M0 246L76.6 288L137.6 151Z" fill="#101213" stroke="#101213"></path><path d="M0 405.5L10.6 426.5L79.1 366Z" fill="#000205" stroke="#000205"></path><path d="M-15.4 203.5L0 246L137.6 151Z" fill="#000000" stroke="#000000"></path><path d="M0 360.5L0 405.5L79.1 366Z" fill="#090c0e" stroke="#090c0e"></path><path d="M0 422L6.6 436.5L10.6 426.5Z" fill="#0e1112" stroke="#0e1112"></path><path d="M10.6 426.5L6.6 436.5L146.7 427.5Z" fill="#000205" stroke="#000205"></path><path d="M0 405.5L0 422L10.6 426.5Z" fill="#0d0f10" stroke="#0d0f10"></path><path d="M735.9 554.5L841.9 540L793.3 540Z" fill="#000000" stroke="#000000"></path><path d="M793.3 540L841.9 540L831.4 458Z" fill="#05080a" stroke="#05080a"></path><path d="M846.9 462L922.4 387.5L811.4 345.5Z" fill="#070a0c" stroke="#070a0c"></path><path d="M40.1 49.5L179.7 130.5L224.1 0Z" fill="#030608" stroke="#030608"></path><path d="M40.1 49.5L137.6 151L179.7 130.5Z" fill="#101213" stroke="#101213"></path><path d="M6.6 436.5L33.6 540L115.1 540Z" fill="#101213" stroke="#101213"></path><path d="M115.1 540L33.6 540L735.9 554.5Z" fill="#000000" stroke="#000000"></path><path d="M0 540L33.6 540L6.6 436.5Z" fill="#030608" stroke="#030608"></path><path d="M832.3 40L773.9 46L799.3 124.5Z" fill="#070a0c" stroke="#070a0c"></path><path d="M773.9 46L766.7 -16.5L726.9 0Z" fill="#000205" stroke="#000205"></path><path d="M726.9 0L766.7 -16.5L706.1 0Z" fill="#0b0e0f" stroke="#0b0e0f"></path><path d="M0 121.5L-15.4 203.5L137.6 151Z" fill="#070a0c" stroke="#070a0c"></path><path d="M0 246L-15.4 203.5L0 360.5Z" fill="#090c0e" stroke="#090c0e"></path><path d="M0 360.5L-20.4 433L0 405.5Z" fill="#0e1112" stroke="#0e1112"></path><path d="M0 405.5L-20.4 433L0 422Z" fill="#0e1112" stroke="#0e1112"></path><path d="M-15.4 203.5L-20.4 433L0 360.5Z" fill="#101213" stroke="#101213"></path><path d="M0 422L-20.4 433L6.6 436.5Z" fill="#101213" stroke="#101213"></path><path d="M735.9 554.5L866.4 540L841.9 540Z" fill="#0d0f10" stroke="#0d0f10"></path><path d="M841.9 540L866.4 540L846.9 462Z" fill="#000205" stroke="#000205"></path><path d="M919.9 94.5L832.3 40L799.3 124.5Z" fill="#05080a" stroke="#05080a"></path><path d="M960 233L906.9 191L883.4 274Z" fill="#0b0e0f" stroke="#0b0e0f"></path><path d="M883.4 274L906.9 191L795.4 222Z" fill="#090c0e" stroke="#090c0e"></path><path d="M960 524.5L922.4 387.5L846.9 462Z" fill="#0d0f10" stroke="#0d0f10"></path><path d="M42.6 0L40.1 49.5L224.1 0Z" fill="#0d0f10" stroke="#0d0f10"></path><path d="M41.6 92.5L0 121.5L137.6 151Z" fill="#000000" stroke="#000000"></path><path d="M0 105.5L0 121.5L41.6 92.5Z" fill="#090c0e" stroke="#090c0e"></path><path d="M0 47L0 105.5L41.6 92.5Z" fill="#070a0c" stroke="#070a0c"></path><path d="M0 121.5L0 105.5L-15.4 203.5Z" fill="#010406" stroke="#010406"></path><path d="M-20.4 433L0 540L6.6 436.5Z" fill="#000000" stroke="#000000"></path><path d="M33.6 540L0 540L735.9 554.5Z" fill="#000000" stroke="#000000"></path><path d="M256.3 -19.5L42.6 0L224.1 0Z" fill="#090c0e" stroke="#090c0e"></path><path d="M40.1 49.5L0 47L41.6 92.5Z" fill="#000205" stroke="#000205"></path><path d="M960 383L960 374.5L922.4 387.5Z" fill="#030608" stroke="#030608"></path><path d="M922.4 387.5L962.4 291.5L883.4 274Z" fill="#0e1112" stroke="#0e1112"></path><path d="M960 374.5L962.4 291.5L922.4 387.5Z" fill="#030608" stroke="#030608"></path><path d="M906.9 191L919.9 94.5L799.3 124.5Z" fill="#090c0e" stroke="#090c0e"></path><path d="M42.6 0L0 47L40.1 49.5Z" fill="#000000" stroke="#000000"></path><path d="M0 105.5L0 47L-15.4 203.5Z" fill="#101213" stroke="#101213"></path><path d="M960 524.5L960 383L922.4 387.5Z" fill="#0b0e0f" stroke="#0b0e0f"></path><path d="M960 374.5L960 383L962.4 291.5Z" fill="#0b0e0f" stroke="#0b0e0f"></path><path d="M962.4 291.5L960 233L883.4 274Z" fill="#0e1112" stroke="#0e1112"></path><path d="M960 190.5L919.9 94.5L906.9 191Z" fill="#070a0c" stroke="#070a0c"></path><path d="M832.3 40L947.4 0L766.7 -16.5Z" fill="#000000" stroke="#000000"></path><path d="M962.4 291.5L960 190.5L960 233Z" fill="#101213" stroke="#101213"></path><path d="M960 233L960 190.5L906.9 191Z" fill="#101213" stroke="#101213"></path><path d="M256.3 -19.5L0 0L42.6 0Z" fill="#010406" stroke="#010406"></path><path d="M42.6 0L0 0L0 47Z" fill="#05080a" stroke="#05080a"></path><path d="M0 47L0 0L-15.4 203.5Z" fill="#030608" stroke="#030608"></path><path d="M866.4 540L960 524.5L846.9 462Z" fill="#010406" stroke="#010406"></path><path d="M960 383L960 524.5L962.4 291.5Z" fill="#0b0e0f" stroke="#0b0e0f"></path><path d="M866.4 540L960 540L960 524.5Z" fill="#0b0e0f" stroke="#0b0e0f"></path><path d="M960 524.5L960 540L962.4 291.5Z" fill="#000205" stroke="#000205"></path><path d="M735.9 554.5L960 540L866.4 540Z" fill="#070a0c" stroke="#070a0c"></path><path d="M962.4 291.5L960 87L960 190.5Z" fill="#070a0c" stroke="#070a0c"></path><path d="M960 190.5L960 87L919.9 94.5Z" fill="#030608" stroke="#030608"></path><path d="M919.9 94.5L947.4 0L832.3 40Z" fill="#000000" stroke="#000000"></path><path d="M960 87L958.4 62.5L919.9 94.5Z" fill="#0b0e0f" stroke="#0b0e0f"></path><path d="M960 87L960 61.5L958.4 62.5Z" fill="#090c0e" stroke="#090c0e"></path><path d="M958.4 62.5L947.4 0L919.9 94.5Z" fill="#05080a" stroke="#05080a"></path><path d="M962.4 291.5L960 61.5L960 87Z" fill="#05080a" stroke="#05080a"></path><path d="M960 61.5L947.4 0L958.4 62.5Z" fill="#0b0e0f" stroke="#0b0e0f"></path><path d="M962.4 291.5L960 0L960 61.5Z" fill="#000000" stroke="#000000"></path><path d="M960 61.5L960 0L947.4 0Z" fill="#000000" stroke="#000000"></path><path d="M947.4 0L960 0L766.7 -16.5Z" fill="#101213" stroke="#101213"></path></g></svg>